<svg width="192" height="192" fill="none" xmlns="http://www.w3.org/2000/svg"><ellipse opacity=".9" cx="82.2" cy="155.371" rx="4.499" ry="4.491" fill="#fff"/><path d="M75.778 130.305C56.646 119.26 50.09 94.796 61.137 75.665c11.045-19.132 35.509-25.687 54.641-14.642 19.131 11.046 25.686 35.51 14.641 54.641-11.046 19.132-35.51 25.687-54.641 14.641z" fill="#C3A06F"/><path d="M62.924 138.413a6.407 6.407 0 011.626 1.728c.402.657.66 1.347.774 2.07a5.61 5.61 0 01-.09 2.186 5.865 5.865 0 01-1.008 2.081 5.874 5.874 0 01-1.703 1.566 5.612 5.612 0 01-2.067.716 5.585 5.585 0 01-2.209-.167 6.184 6.184 0 01-2.132-1.047 6.255 6.255 0 01-1.588-1.698 4.528 4.528 0 01-.726-2.055l1.052-.155c.088.651.295 1.222.619 1.716a4.95 4.95 0 001.247 1.326c.54.401 1.11.679 1.712.834a4.307 4.307 0 001.79.114 4.578 4.578 0 001.687-.58c.52-.305.98-.727 1.38-1.267a4.787 4.787 0 00.825-1.699 4.824 4.824 0 00.069-1.783 4.635 4.635 0 00-.625-1.68 5.117 5.117 0 00-1.302-1.387 4.95 4.95 0 00-1.629-.812 4.252 4.252 0 00-1.83-.085l-.155-1.052a4.664 4.664 0 012.186.09c.739.203 1.438.55 2.097 1.04zm-6.081-5.003l-6.528 5.287-.725-.895 2.614-7.018.302.373-7.448 1.049-.664-.82 6.528-5.287.654.808-5.52 4.471-.057-.222 6.926-.956.322.398-2.404 6.641-.188-.156 5.533-4.481.655.808zm-9.734-14.521c.343.735.487 1.474.434 2.217a4.158 4.158 0 01-.735 2.02c-.432.613-1.025 1.096-1.778 1.448-.764.356-1.515.5-2.253.432a4.023 4.023 0 01-2.005-.741c-.6-.427-1.073-1.012-1.42-1.756-.352-.754-.499-1.498-.44-2.231a3.892 3.892 0 01.72-2.014c.422-.609 1.014-1.091 1.778-1.448.754-.351 1.505-.496 2.252-.432a3.997 3.997 0 012.02.734c.604.437 1.08 1.027 1.427 1.771zm-.913.426c-.258-.551-.606-.982-1.046-1.295a2.94 2.94 0 00-1.511-.513c-.572-.04-1.152.078-1.742.353-.6.28-1.063.649-1.39 1.108a2.83 2.83 0 00-.563 1.481 3.087 3.087 0 00.3 1.626 3.09 3.09 0 001.054 1.274c.44.312.94.49 1.503.534.561.044 1.142-.074 1.741-.353.59-.276 1.053-.645 1.39-1.108a3.06 3.06 0 00.57-1.502 3.151 3.151 0 00-.306-1.605zm-2.565-9.61l-7.47 1.914.223-.354.862 3.363-.961.247-1.863-7.269.96-.247.863 3.364-.366-.204 7.47-1.915.282 1.101zm-1.715-11.361a3.939 3.939 0 01-.374 1.995 3.77 3.77 0 01-1.367 1.494c-.618.38-1.385.599-2.3.655-.916.056-1.698-.067-2.347-.369-.66-.301-1.173-.735-1.54-1.3-.365-.565-.57-1.215-.616-1.95-.049-.798.088-1.523.411-2.173a3.78 3.78 0 011.41-1.593c.616-.402 1.345-.628 2.186-.68.852-.052 1.608.083 2.269.406a3.918 3.918 0 011.593 1.409c.401.605.626 1.308.675 2.106zm3.284 4.142l-11.482.706-.067-1.086 2.523-.155 1.684.009 1.683-.264 5.59-.344.07 1.134zm-4.285-4a3.187 3.187 0 00-.498-1.573 3.059 3.059 0 00-1.218-1.047c-.518-.246-1.101-.349-1.75-.31-.65.04-1.211.214-1.684.521a3.057 3.057 0 00-1.08 1.189 3.085 3.085 0 00-.318 1.622 3.17 3.17 0 00.515 1.588c.305.451.711.8 1.218 1.047.506.236 1.084.334 1.733.294.65-.04 1.217-.208 1.7-.505a3.057 3.057 0 001.082-1.189 3.27 3.27 0 00.3-1.637zM42.5 87.27c-.13.866-.423 1.598-.88 2.198a4.086 4.086 0 01-1.735 1.308c-.7.272-1.46.346-2.283.222-.822-.124-1.524-.408-2.104-.851a3.987 3.987 0 01-1.268-1.68 4.06 4.06 0 01-.239-2.172c.118-.78.401-1.444.85-1.991a3.733 3.733 0 011.705-1.216c.685-.252 1.444-.316 2.278-.19.052.008.11.022.171.042l.174.026-1.09 7.23-.838-.126.999-6.63.265.494c-.6-.09-1.153-.04-1.657.154a2.814 2.814 0 00-1.265.878c-.33.403-.54.895-.627 1.475a3.03 3.03 0 00.164 1.594c.196.493.511.902.948 1.227.436.325.96.533 1.572.625l.174.027c.633.095 1.213.042 1.74-.159a3.12 3.12 0 001.3-1.001c.34-.467.558-1.022.655-1.665a3.69 3.69 0 00-.057-1.449 2.962 2.962 0 00-.65-1.263l.822-.523c.388.436.655.95.803 1.545.15.583.174 1.207.074 1.872zm1.971-8.492L37.18 76.27l.38-.173-1.129 3.283-.938-.323 2.441-7.096.938.323-1.13 3.283-.193-.371 7.293 2.508-.37 1.075zm-.383-12.463c.527-.915 1.124-1.497 1.79-1.747.672-.259 1.384-.177 2.137.247.781.439 1.235 1.036 1.36 1.792.132.747-.082 1.606-.64 2.577l-1.676 2.949-7.323-4.116.557-.99 2.553 1.435 1.242-2.147zm3.862 2.501c.391-.673.544-1.26.458-1.761-.09-.516-.409-.928-.957-1.236-.549-.308-1.045-.361-1.49-.158-.453.198-.878.638-1.274 1.32l-1.102 1.896 3.264 1.834 1.102-1.895zm7.642-9.396l-5.878-6.001 2.652-2.598c.678-.664 1.339-1.057 1.981-1.178.65-.13 1.221.058 1.714.56.478.488.66 1.048.548 1.68-.12.626-.484 1.237-1.094 1.834l-.075-.397c.717-.702 1.373-1.083 1.97-1.145.596-.062 1.14.159 1.633.662.508.518.713 1.109.615 1.771-.097.648-.542 1.36-1.334 2.136l-2.732 2.676zm.161-1.413l1.91-1.87c.51-.5.816-.956.919-1.37.102-.429-.026-.826-.384-1.192s-.737-.517-1.138-.453c-.4.063-.856.345-1.366.846l-1.99 1.947 2.05 2.092zm-2.642-2.697l1.806-1.77c.465-.454.734-.89.806-1.303.08-.422-.044-.8-.373-1.136-.328-.335-.7-.463-1.116-.385-.408.072-.845.335-1.31.79l-1.806 1.769 1.993 2.035zm10.506-3.258l-4.42-7.143.965-.598 3.511 5.674 1.265-8.63.857-.53 4.42 7.143-.966.598-3.52-5.687-1.242 8.634-.87.539zm16.503-8.674l-2.206-6.5-3.834 1.301.511 1.804c.162.542.305 1.08.429 1.611.134.53.22 1.03.256 1.502.043.458.015.857-.084 1.194a1.127 1.127 0 01-.588.707l-1.143.168a.988.988 0 00.66-.596c.12-.31.164-.692.135-1.144a9.153 9.153 0 00-.236-1.491 43.749 43.749 0 00-.434-1.678l-.794-2.687 5.879-1.995 2.524 7.439-1.075.365zm-6.02 4.764l-.972-2.864 9.166-3.111.972 2.864-1.015.344-.653-1.924-7.136 2.422.653 1.924-1.015.345zm15.71-6.07c-.87.101-1.654.01-2.352-.274a4.085 4.085 0 01-1.718-1.33c-.447-.602-.718-1.317-.814-2.143-.097-.827-.007-1.578.268-2.255a3.986 3.986 0 011.288-1.664 4.06 4.06 0 012.032-.801c.784-.092 1.5.007 2.145.297.656.278 1.196.72 1.62 1.325.425.595.686 1.31.783 2.148a1 1 0 01.005.176l.02.175-7.262.848-.099-.842 6.659-.778-.406.386c-.07-.604-.265-1.123-.585-1.559a2.815 2.815 0 00-1.178-.99c-.476-.213-1.006-.285-1.588-.217-.573.067-1.07.26-1.496.577-.424.318-.736.73-.934 1.237-.199.507-.262 1.067-.19 1.681l.02.175c.074.636.277 1.181.61 1.637a3.1 3.1 0 001.307.99c.54.206 1.133.271 1.779.196a3.68 3.68 0 001.383-.436 2.962 2.962 0 001.048-.96l.72.657a3.591 3.591 0 01-1.28 1.18 4.676 4.676 0 01-1.786.564zm10.643-.138c-.807-.076-1.518-.325-2.132-.747a4.155 4.155 0 01-1.371-1.655c-.31-.683-.427-1.438-.35-2.267.08-.839.334-1.56.766-2.162a4.034 4.034 0 011.654-1.355c.67-.301 1.415-.413 2.233-.337.828.078 1.544.328 2.148.748a3.891 3.891 0 011.372 1.64c.312.672.429 1.428.35 2.267-.078.828-.333 1.549-.766 2.161a3.992 3.992 0 01-1.655 1.372c-.682.3-1.431.412-2.249.335zm.094-1.004c.605.057 1.154-.025 1.646-.247.494-.232.896-.58 1.207-1.044.323-.473.515-1.033.576-1.681.062-.658-.022-1.245-.253-1.76a2.822 2.822 0 00-.993-1.234 3.082 3.082 0 00-1.554-.563 3.087 3.087 0 00-1.632.264 2.94 2.94 0 00-1.22 1.026c-.323.463-.515 1.024-.577 1.682-.06.648.024 1.234.253 1.76.23.514.566.931 1.007 1.251.443.31.956.492 1.54.546zm15.559 4.786c-.771-.312-1.395-.76-1.872-1.345a4.12 4.12 0 01-.852-1.986c-.102-.743.003-1.5.316-2.271.316-.781.767-1.398 1.354-1.851a4 4 0 011.988-.817c.749-.088 1.509.024 2.28.337.663.268 1.209.639 1.639 1.112a3.14 3.14 0 01.791 1.667l-1.002.216a2.662 2.662 0 00-.639-1.278 3.197 3.197 0 00-1.176-.804 3.17 3.17 0 00-1.654-.221 2.906 2.906 0 00-1.479.626c-.442.35-.786.832-1.035 1.445-.248.613-.336 1.2-.263 1.758a3.03 3.03 0 00.62 1.494c.345.428.794.754 1.348.978a3.2 3.2 0 001.404.24 2.7 2.7 0 001.342-.457l.57.852a3.27 3.27 0 01-1.729.647c-.638.04-1.288-.074-1.951-.342zm10.55 5.474l5.266-6.544 5.883 4.734-5.266 6.544-.885-.712 4.835-6.008.034.417-4.562-3.671.415-.056-4.835 6.008-.885-.712zm11.538 11.159a3.937 3.937 0 01-.839-1.848 3.77 3.77 0 01.26-2.009c.288-.665.79-1.284 1.507-1.856.717-.572 1.428-.921 2.133-1.047.713-.132 1.382-.072 2.006.18.625.253 1.166.667 1.625 1.243.499.625.803 1.297.912 2.015.124.72.044 1.424-.238 2.114-.275.682-.741 1.286-1.4 1.812-.667.532-1.364.855-2.09.971a3.92 3.92 0 01-2.114-.238c-.676-.266-1.263-.712-1.762-1.337zm-5.068-1.505l8.994-7.172.678.85-1.976 1.576-1.383.96-1.226 1.183-4.379 3.492-.708-.889zm5.806.814c.373.467.809.8 1.31 1.001a3.06 3.06 0 001.599.158c.565-.096 1.102-.347 1.611-.752.508-.406.868-.87 1.079-1.393a3.053 3.053 0 00.202-1.594 3.09 3.09 0 00-.672-1.51 3.175 3.175 0 00-1.333-1.004 3.06 3.06 0 00-1.599-.158c-.55.098-1.079.35-1.588.755-.509.406-.876.87-1.102 1.39a3.064 3.064 0 00-.202 1.594c.091.542.323 1.046.695 1.513zm5.159 10.049c-.353-.73-.509-1.467-.466-2.21a4.157 4.157 0 01.705-2.03c.423-.62 1.009-1.112 1.757-1.475.759-.367 1.507-.522 2.246-.466a4.03 4.03 0 012.016.713c.606.417 1.087.996 1.446 1.735.362.749.52 1.49.473 2.224a3.89 3.89 0 01-.691 2.024c-.413.615-.999 1.106-1.757 1.474-.749.362-1.497.518-2.246.465a3.996 3.996 0 01-2.03-.705c-.61-.427-1.095-1.01-1.453-1.75zm.907-.44c.266.547.62.974 1.065 1.28.454.301.96.465 1.518.491.572.031 1.151-.095 1.737-.38.595-.287 1.053-.663 1.373-1.127.326-.454.506-.95.541-1.489a3.089 3.089 0 00-.323-1.621 3.09 3.09 0 00-1.072-1.259 2.94 2.94 0 00-1.511-.512c-.562-.036-1.141.09-1.736.379-.586.284-1.044.66-1.374 1.128a3.055 3.055 0 00-.548 1.51 3.15 3.15 0 00.33 1.6zm2.494 8.247l8.194-1.848.25 1.108-6.509 1.468 7.745 4.01.221.984-8.194 1.848-.25-1.108 6.524-1.472-7.756-3.991-.225-.999zm2.184 14.779c.009.693.124 1.316.345 1.867.221.563.521 1.007.899 1.332.388.325.833.485 1.334.478.64-.009 1.143-.288 1.509-.837.366-.538.542-1.287.529-2.247l-.304-.044c.007.544.099 1.028.275 1.452.177.425.422.763.734 1.014a1.66 1.66 0 001.094.37 1.662 1.662 0 001.193-.497c.337-.325.592-.76.766-1.306.174-.536.246-1.14.215-1.812a5.34 5.34 0 00-.228-1.469 7.067 7.067 0 00-.596-1.448l-.875.332c.23.435.401.875.514 1.321.123.447.193.878.21 1.294.006.458-.042.87-.143 1.234-.102.364-.258.649-.469.854-.21.216-.465.327-.763.33a1.044 1.044 0 01-.724-.261c-.205-.168-.363-.412-.474-.73a3.499 3.499 0 01-.175-1.102l-.019-1.36-.832.012.02 1.44c.01.704-.111 1.26-.361 1.669-.24.408-.584.616-1.032.622a1.234 1.234 0 01-.836-.309c-.248-.21-.444-.506-.588-.888-.144-.382-.225-.834-.243-1.357a5.823 5.823 0 01.203-1.587 4.545 4.545 0 01.668-1.417l-.853-.356a4.69 4.69 0 00-.762 1.594c-.163.6-.24 1.204-.231 1.812zm-.105 7.378l8.27 1.47-.649 3.655c-.166.934-.475 1.638-.928 2.11-.454.483-1.028.662-1.721.539-.672-.119-1.146-.469-1.422-1.049-.266-.578-.324-1.287-.174-2.127l.291.279c-.175.987-.488 1.679-.938 2.076-.449.397-1.021.534-1.714.41-.714-.127-1.224-.488-1.53-1.084-.297-.584-.348-1.422-.154-2.514l.669-3.765zm.689 1.244l-.468 2.631c-.125.703-.109 1.253.048 1.649.166.409.501.658 1.005.748.504.089.901-.008 1.19-.293.289-.284.496-.778.621-1.482l.487-2.741-2.883-.512zm3.718.661l-.443 2.489c-.113.64-.08 1.15.102 1.529.18.39.501.625.963.707.462.083.84-.029 1.132-.335.291-.295.494-.762.607-1.403l.443-2.489-2.804-.498zm-8.095 12.03c.308-.75.752-1.357 1.335-1.822a4.153 4.153 0 011.982-.83c.744-.099 1.501.009 2.271.324.779.32 1.395.774 1.845 1.362.451.588.723 1.247.816 1.976.093.73-.016 1.475-.327 2.235-.316.77-.763 1.382-1.341 1.837a3.883 3.883 0 01-1.968.836c-.733.103-1.49-.005-2.27-.324-.77-.316-1.385-.769-1.846-1.361a4.006 4.006 0 01-.83-1.983c-.089-.74.022-1.49.333-2.25zm.933.382c-.23.563-.311 1.112-.242 1.647.078.54.294 1.026.647 1.459.359.446.84.793 1.442 1.04.612.25 1.197.34 1.756.27a2.834 2.834 0 001.47-.591c.435-.33.765-.77.992-1.323.226-.553.3-1.099.221-1.639a2.944 2.944 0 00-.627-1.467c-.349-.442-.829-.789-1.441-1.04-.602-.246-1.188-.336-1.757-.27a3.06 3.06 0 00-1.49.6 3.148 3.148 0 00-.971 1.314zm-7.305 12.326l5.632 3.923 2.314-3.321-1.481-1.149a27.751 27.751 0 01-1.302-1.043 8.807 8.807 0 01-1.096-1.057c-.307-.343-.521-.681-.641-1.011a1.126 1.126 0 01.054-.918l.82-.813a.983.983 0 00-.177.87c.088.322.278.656.569 1.002.292.346.65.7 1.075 1.06.433.367.882.732 1.345 1.093l2.233 1.693-3.548 5.093-6.446-4.49.649-.932zm2.02-7.407l2.481 1.729-5.533 7.943-2.481-1.729.613-.879 1.667 1.161 4.308-6.184-1.668-1.161.613-.88zm-8.893 14.129c.608-.569 1.277-.947 2.007-1.134a4.11 4.11 0 012.16.061c.718.22 1.36.633 1.929 1.241.576.615.946 1.284 1.111 2.006a4.012 4.012 0 01-.094 2.148c-.235.717-.656 1.359-1.264 1.928-.522.488-1.088.828-1.698 1.019a3.136 3.136 0 01-1.845.018l.225-1c.502.115.978.1 1.428-.043.45-.144.858-.387 1.224-.729a3.18 3.18 0 00.896-1.408 2.91 2.91 0 00.053-1.606c-.133-.548-.425-1.063-.877-1.546-.452-.483-.947-.809-1.485-.977a3.012 3.012 0 00-1.616-.065 3.266 3.266 0 00-1.453.812 3.195 3.195 0 00-.809 1.173 2.704 2.704 0 00-.149 1.41l-1.012.159a3.264 3.264 0 01.14-1.841c.231-.596.607-1.138 1.129-1.626zm-7.017 5.653l4.155 6.497-.406-.101 2.925-1.871.534.836-6.321 4.043-.535-.836 2.925-1.87-.079.411-4.155-6.497.957-.612zm-6.145 3.624l3.187 7.772-3.434 1.408c-.879.36-1.638.476-2.279.347-.651-.125-1.11-.514-1.377-1.165-.259-.632-.218-1.219.124-1.763.346-.534.914-.963 1.704-1.286l-.08.395c-.928.381-1.68.487-2.255.32-.576-.167-.998-.577-1.265-1.228-.275-.671-.243-1.295.097-1.873.334-.563 1.014-1.055 2.04-1.476l3.538-1.451zm-.681 1.248l-2.472 1.014c-.662.271-1.118.579-1.368.923-.257.359-.288.775-.093 1.249.194.474.488.757.883.848.395.092.924.002 1.585-.269l2.576-1.056-1.111-2.709zm1.432 3.494l-2.339.959c-.602.246-1.014.548-1.237.905-.232.36-.26.758-.082 1.192.178.434.475.693.889.777.405.087.909.008 1.511-.239l2.339-.959-1.081-2.635zm-16.115-.005l.349 1.822.105.29.583 3.049c.134.702.437 1.203.907 1.504.46.303 1.077.38 1.853.232a4.446 4.446 0 001.473-.559c.448-.27.811-.584 1.09-.942l.663.737a4.444 4.444 0 01-1.353 1.106 5.825 5.825 0 01-1.797.653c-1.068.205-1.942.095-2.62-.329-.687-.412-1.134-1.157-1.341-2.236l-.98-5.123 1.068-.204zm2.83-.623c.618-.119 1.176-.122 1.676-.012.49.124.89.34 1.199.65.311.321.512.717.602 1.188.082.43.057.837-.076 1.22-.141.397-.422.744-.843 1.042-.43.31-1.037.54-1.823.69l-2.844.545-.16-.833 2.813-.538c.797-.153 1.325-.4 1.585-.743.25-.342.334-.722.254-1.141a1.383 1.383 0 00-.766-1.026c-.421-.212-.962-.256-1.622-.129-.628.12-1.141.365-1.537.734-.405.381-.66.865-.765 1.449l-.399-.721a2.66 2.66 0 01.85-1.515c.452-.423 1.07-.71 1.856-.86z" fill="#fff"/></svg>